<svg width="86" height="22" viewBox="0 0 86 22" fill="none" xmlns="http://www.w3.org/2000/svg">
<path d="M71.7141 18.8537L72.7915 16.0524C74.4795 16.9682 76.2303 17.4261 78.044 17.4261C79.283 17.4261 80.2168 17.2106 80.8453 16.7796C81.4738 16.3307 81.788 15.7291 81.788 14.9749C81.788 14.6876 81.7162 14.4272 81.5725 14.1938C81.4468 13.9604 81.2942 13.7628 81.1146 13.6012C80.953 13.4396 80.6747 13.26 80.2796 13.0625C79.8846 12.865 79.5434 12.7123 79.2561 12.6046C78.9688 12.4969 78.5109 12.3263 77.8824 12.0928C77.6489 12.003 77.4694 11.9402 77.3437 11.9043C76.4638 11.5811 75.7455 11.2758 75.1888 10.9885C74.6321 10.7012 74.0844 10.342 73.5457 9.91105C73.025 9.48008 72.6389 8.97728 72.3875 8.40265C72.1361 7.82803 72.0104 7.15464 72.0104 6.38248C72.0104 4.74839 72.612 3.45548 73.8151 2.50376C75.0182 1.55203 76.6164 1.07617 78.6096 1.07617C81.0877 1.07617 83.1617 1.67773 84.8318 2.88086L83.3772 5.4128C81.9407 4.42516 80.3784 3.93134 78.6904 3.93134C77.7028 3.93134 76.9217 4.13785 76.347 4.55086C75.7904 4.96388 75.512 5.54748 75.512 6.30168C75.512 6.48125 75.53 6.66082 75.5659 6.84039C75.6198 7.002 75.7006 7.15464 75.8083 7.29829C75.9161 7.44195 76.0238 7.57663 76.1315 7.70233C76.2572 7.81007 76.4278 7.92679 76.6433 8.05249C76.8588 8.17819 77.0474 8.28593 77.209 8.37572C77.3706 8.44755 77.604 8.54631 77.9093 8.67201C78.2146 8.79771 78.466 8.89647 78.6635 8.9683C78.879 9.04013 79.1753 9.14787 79.5524 9.29153C79.9295 9.43519 80.2347 9.54293 80.4682 9.61475C82.1382 10.2433 83.3682 10.9346 84.1584 11.6888C84.9485 12.425 85.3435 13.4486 85.3435 14.7595C85.3435 16.5731 84.6971 18.0007 83.4042 19.0422C82.1113 20.0658 80.3874 20.5775 78.2325 20.5775C77.1192 20.5775 75.9789 20.4339 74.8117 20.1466C73.6625 19.8413 72.6299 19.4103 71.7141 18.8537Z" fill="white"/>
<path d="M53.4503 1.39917H59.2415C60.6242 1.39917 61.8901 1.5967 63.0394 1.99175C64.2066 2.36885 65.2301 2.9345 66.11 3.6887C66.9899 4.42494 67.6723 5.39462 68.1572 6.59774C68.6599 7.80086 68.9113 9.1656 68.9113 10.692C68.9113 12.7391 68.4714 14.4988 67.5915 15.9713C66.7296 17.4258 65.5803 18.5033 64.1437 19.2036C62.7251 19.9039 61.091 20.2541 59.2415 20.2541H53.4503V1.39917ZM56.8711 4.44289V17.1834H59.5108C61.3784 17.1834 62.8149 16.6537 63.8205 15.5942C64.8261 14.5168 65.3289 12.8827 65.3289 10.692C65.3289 6.52591 63.3896 4.44289 59.5108 4.44289H56.8711Z" fill="white"/>
<path d="M49.482 20.2541H46.6268L36.9839 7.27113V20.2541H33.6169V1.39917H36.4991L46.0612 14.436V1.39917H49.482V20.2541Z" fill="white"/>
<path d="M25.2449 21.5432H21.7727L28.191 0H31.5711L25.2449 21.5432Z" fill="#007ACC"/>
<path d="M19.636 1.39917V20.2541H16.3768V7.75597L10.7204 19.8501H8.83488L3.23227 7.80984V20.2541H0V1.39917H3.25921L9.9123 15.7289L16.3499 1.39917H19.636Z" fill="white"/>
</svg>
